<svg width="500" height="43" viewBox="0 0 500 43" fill="none" xmlns="http://www.w3.org/2000/svg">
<path d="M194.447 16.6018L200.954 16.5942C202.38 16.5929 203.532 16.2003 204.411 15.4164C205.29 14.6324 205.729 13.563 205.728 12.2081L205.727 11.756C205.725 10.4014 205.284 9.33281 204.404 8.55036C203.523 7.76892 202.369 7.37895 200.944 7.38047L194.436 7.38766L194.447 16.6018ZM188.459 33.5913L188.423 1.97399L201.529 1.95922C203.532 1.9572 205.299 2.35436 206.833 3.15069C208.365 3.94677 209.565 5.06706 210.431 6.51157C211.298 7.95582 211.732 9.67166 211.734 11.6591L211.735 12.2914C211.737 14.2493 211.291 15.9585 210.398 17.4192C209.505 18.8814 208.292 20.012 206.761 20.8111C205.23 21.6107 203.493 22.0117 201.552 22.0139L194.453 22.0215L194.466 33.5845L188.459 33.5913Z" fill="#1E272E"/>
<path d="M228.585 34.1787C225.975 34.1817 223.737 33.71 221.87 32.7635C220.004 31.817 218.576 30.4636 217.588 28.7033C216.6 26.943 216.105 24.8583 216.102 22.4491L216.079 1.94312L222.086 1.9363L222.109 22.6233C222.111 24.5506 222.667 26.0706 223.776 27.1832C224.884 28.2963 226.485 28.8516 228.579 28.8491C230.672 28.8465 232.272 28.2876 233.378 27.1722C234.484 26.0574 235.036 24.5361 235.034 22.6085L235.011 1.92191L241.018 1.9151L241.041 22.4211C241.044 24.8309 240.553 26.9155 239.569 28.6787C238.585 30.441 237.16 31.7976 235.296 32.7487C233.431 33.699 231.194 34.1757 228.585 34.1787Z" fill="#1E272E"/>
<path d="M255.629 28.0973L261.272 28.0909C262.576 28.0894 263.63 27.7721 264.434 27.1391C265.237 26.5056 265.638 25.6017 265.637 24.4275L265.636 23.9758C265.635 22.8014 265.239 21.8984 264.45 21.2669C263.66 20.6359 262.598 20.321 261.263 20.3223L255.62 20.3284L255.629 28.0973ZM255.614 14.9082L261.167 14.9022C262.41 14.9009 263.433 14.5837 264.237 13.9504C265.04 13.3168 265.441 12.443 265.44 11.3289L265.439 10.8776C265.438 9.73347 265.043 8.85309 264.253 8.23647C263.463 7.6206 262.432 7.31305 261.158 7.31381L255.605 7.32024L255.614 14.9082ZM245.441 33.5288L245.435 28.2897L249.622 28.2844L249.598 7.14647L245.411 7.15101L245.405 1.91149L261.788 1.89332C263.73 1.8913 265.422 2.21311 266.864 2.85876C268.305 3.50491 269.429 4.4219 270.234 5.60971C271.039 6.7989 271.444 8.22132 271.445 9.87696L271.446 10.3286C271.448 11.7742 271.176 12.9564 270.631 13.8754C270.086 14.7944 269.442 15.5028 268.699 16.0005C267.956 16.4983 267.251 16.8528 266.584 17.064L266.585 17.8773C267.252 18.0572 267.981 18.3951 268.77 18.8908C269.56 19.3873 270.235 20.1018 270.798 21.0345C271.36 21.9676 271.642 23.1867 271.644 24.6918L271.645 25.1435C271.647 26.8906 271.239 28.389 270.421 29.6386C269.603 30.8898 268.474 31.8473 267.034 32.5111C265.593 33.1749 263.918 33.5081 262.007 33.5106L245.441 33.5288Z" fill="#1E272E"/>
<path d="M275.959 33.4939L275.923 1.87696L281.93 1.87014L281.959 28.0673L296.522 28.0511L296.529 33.4708L275.959 33.4939Z" fill="#1E272E"/>
<path d="M300.993 33.4661L300.957 1.84875L306.964 1.84269L307 33.4592L300.993 33.4661Z" fill="#1E272E"/>
<path d="M324.304 34.072C320.359 34.0771 317.233 32.9891 314.925 30.808C312.617 28.6275 311.46 25.5047 311.456 21.4395L311.447 13.8515C311.443 9.78675 312.592 6.66124 314.895 4.47492C317.198 2.28961 320.322 1.19456 324.267 1.18977C328.181 1.18573 331.208 2.2438 333.349 4.36399C335.491 6.48468 336.563 9.39679 336.567 13.1003L336.568 13.3714L330.652 13.3782L330.651 12.9261C330.649 11.0599 330.124 9.52489 329.076 8.32117C328.028 7.11822 326.427 6.51775 324.273 6.51977C322.149 6.52229 320.481 7.1716 319.269 8.46769C318.057 9.76404 317.452 11.5262 317.455 13.7542L317.463 21.5228C317.466 23.7212 318.074 25.4745 319.289 26.7827C320.504 28.0917 322.174 28.7448 324.298 28.742C326.452 28.74 328.051 28.1285 329.097 26.9077C330.142 25.6868 330.664 24.158 330.662 22.3212L330.661 21.508L336.577 21.5019L336.577 22.1342C336.582 25.8375 335.516 28.7518 333.379 30.8773C331.243 33.0028 328.218 34.0677 324.304 34.072Z" fill="#1E272E"/>
<path d="M355.02 32.4006L350.798 0.788237L356.759 0.781424L359.885 28.2398L360.704 28.239L364.678 0.772335L375.054 0.760979L379.09 28.2182L379.909 28.2174L382.972 0.75189L388.934 0.745455L384.783 32.3673L374.407 32.3787L370.28 4.28958L369.461 4.29033L365.396 32.3893L355.02 32.4006Z" fill="#1E272E"/>
<path d="M404.575 27.6467C406.819 27.6442 408.563 26.9947 409.806 25.6984C411.048 24.4032 411.668 22.6699 411.666 20.502L411.657 12.5528C411.654 10.3847 411.03 8.65394 409.785 7.36063C408.539 6.06731 406.794 5.42179 404.55 5.42406C402.335 5.42659 400.598 6.0759 399.341 7.37199C398.083 8.66833 397.456 10.4006 397.458 12.5687L397.467 20.5183C397.47 22.6864 398.101 24.4172 399.362 25.7105C400.622 27.0036 402.359 27.6489 404.575 27.6467ZM404.581 32.9763C400.576 32.9813 397.389 31.8934 395.02 29.7123C392.651 27.5318 391.464 24.4092 391.46 20.3445L391.451 12.7561C391.446 8.69118 392.626 5.56566 394.99 3.3796C397.354 1.19403 400.538 0.0992317 404.544 0.0951958C408.548 0.0904007 411.735 1.17813 414.104 3.35839C416.473 5.53891 417.66 8.66177 417.664 12.727L417.673 20.315C417.677 24.3799 416.498 27.5053 414.134 29.6911C411.77 31.877 408.585 32.972 404.581 32.9763Z" fill="#1E272E"/>
<path d="M428.042 14.9729L435.232 14.9649C436.658 14.9634 437.772 14.5782 438.576 13.8094C439.379 13.0403 439.78 12.0235 439.779 10.759L439.778 10.3073C439.777 9.04278 439.381 8.02699 438.591 7.25993C437.801 6.49326 436.679 6.11049 435.222 6.112L428.032 6.11995L428.042 14.9729ZM422.054 32.324L422.019 0.706657L435.854 0.691135C437.856 0.689116 439.601 1.03352 441.088 1.72435C442.575 2.41517 443.729 3.39248 444.55 4.65626C445.371 5.9198 445.782 7.40986 445.784 9.12646L445.784 9.66824C445.787 11.5653 445.333 13.1016 444.424 14.277C443.515 15.4524 442.394 16.312 441.06 16.8557L441.06 17.6682C442.274 17.7275 443.215 18.1405 443.883 18.9073C444.551 19.6747 444.886 20.6904 444.888 21.9547L444.9 32.2982L438.892 32.305L438.882 22.8206C438.881 22.0972 438.691 21.5099 438.311 21.0586C437.931 20.6078 437.301 20.3828 436.422 20.3835L428.048 20.393L428.061 32.3179L422.054 32.324Z" fill="#1E272E"/>
<path d="M449.906 32.2915L449.87 0.674562L455.877 0.668127L455.892 13.2246L456.711 13.2234L467.027 0.655256L474.718 0.646547L461.447 16.2439L475.209 32.2635L467.29 32.2722L456.718 19.4568L455.899 19.4579L455.913 32.2847L449.906 32.2915Z" fill="#1E272E"/>
<path d="M487.952 32.8811C485.494 32.8839 483.325 32.4497 481.443 31.5787C479.56 30.7076 478.087 29.4596 477.024 27.8347C475.96 26.2099 475.427 24.2533 475.424 21.9648L475.423 20.7002L481.339 20.6934L481.34 21.958C481.343 23.855 481.936 25.2772 483.12 26.2245C484.304 27.1715 485.913 27.644 487.945 27.642C490.008 27.6392 491.548 27.2309 492.564 26.4172C493.579 25.6027 494.086 24.5631 494.084 23.2986C494.084 22.4258 493.833 21.7184 493.331 21.1765C492.83 20.6351 492.102 20.1919 491.145 19.8468C490.189 19.5018 489.028 19.1794 487.663 18.8795L486.616 18.655C484.431 18.1761 482.556 17.5684 480.993 16.832C479.43 16.096 478.23 15.1263 477.395 13.9228C476.559 12.7194 476.14 11.1539 476.138 9.22659C476.136 7.3 476.596 5.65079 477.521 4.27898C478.444 2.90818 479.748 1.85288 481.431 1.11308C483.114 0.373543 485.093 0.00250626 487.369 -1.52588e-05C489.644 -0.00279236 491.67 0.378841 493.445 1.14489C495.221 1.91093 496.618 3.05356 497.636 4.57278C498.654 6.0925 499.164 7.99651 499.167 10.2848L499.168 11.6398L493.252 11.6466L493.251 10.2912C493.249 9.08727 493.013 8.11652 492.542 7.379C492.07 6.64198 491.395 6.10083 490.515 5.75554C489.634 5.41 488.587 5.23786 487.374 5.23912C485.554 5.24114 484.212 5.58151 483.348 6.26022C482.484 6.93893 482.052 7.86513 482.054 9.03881C482.055 9.82252 482.26 10.4848 482.671 11.0257C483.081 11.5674 483.696 12.0184 484.515 12.3789C485.335 12.7393 486.382 13.0543 487.657 13.3239L488.704 13.5484C490.979 14.0279 492.96 14.6432 494.645 15.3941C496.329 16.145 497.642 17.137 498.584 18.3703C499.526 19.6045 499.998 21.1848 500.001 23.1112C500.002 25.0388 499.511 26.7332 498.527 28.1943C497.543 29.656 496.148 30.8018 494.344 31.6317C492.54 32.4621 490.409 32.8786 487.952 32.8811Z" fill="#1E272E"/>
<rect x="144.303" y="29.7126" width="35.926" height="3.86274" fill="#9F5528"/>
<path d="M131.253 33.6425V0.890625H136.109V33.6425H131.253Z" fill="#9F5528"/>
<path d="M111.776 34.2974C110.11 34.2974 108.618 34.0167 107.298 33.4552C106.009 32.8937 104.972 32.0672 104.186 30.9754C103.432 29.8837 103.055 28.558 103.055 26.9984C103.055 25.4076 103.432 24.0975 104.186 23.0682C104.972 22.0077 106.025 21.2122 107.345 20.682C108.696 20.1517 110.22 19.8866 111.917 19.8866H118.989V18.3894C118.989 17.0481 118.58 15.972 117.763 15.161C116.946 14.35 115.689 13.9445 113.992 13.9445C112.326 13.9445 111.053 14.3344 110.173 15.1142C109.293 15.894 108.712 16.9077 108.429 18.1554L103.903 16.705C104.28 15.4573 104.878 14.3344 105.695 13.3362C106.543 12.3069 107.659 11.4803 109.042 10.8564C110.425 10.2326 112.09 9.92065 114.039 9.92065C117.056 9.92065 119.429 10.6849 121.157 12.2133C122.886 13.7417 123.75 15.9096 123.75 18.7169V28.2149C123.75 29.1507 124.19 29.6186 125.07 29.6186H127.05V33.6424H123.42C122.32 33.6424 121.425 33.3616 120.733 32.8002C120.042 32.2387 119.696 31.4745 119.696 30.5075V30.3672H118.989C118.737 30.8351 118.36 31.3809 117.857 32.0048C117.355 32.6286 116.616 33.1745 115.642 33.6424C114.667 34.0791 113.379 34.2974 111.776 34.2974ZM112.483 30.3204C114.432 30.3204 116.003 29.7745 117.197 28.6828C118.392 27.5599 118.989 26.0315 118.989 24.0975V23.6297H112.2C110.912 23.6297 109.875 23.9104 109.089 24.4718C108.303 25.0021 107.91 25.7975 107.91 26.858C107.91 27.9186 108.319 28.7608 109.136 29.3846C109.953 30.0085 111.069 30.3204 112.483 30.3204Z" fill="#9F5528"/>
<path d="M92.2579 33.6429C90.8436 33.6429 89.7122 33.2218 88.8637 32.3796C88.0465 31.5374 87.6379 30.4145 87.6379 29.0108V14.6468H81.2266V10.5762H87.6379V2.94971H92.4936V10.5762H99.4236V14.6468H92.4936V28.1686C92.4936 29.1044 92.9336 29.5723 93.8136 29.5723H98.6693V33.6429H92.2579Z" fill="#9F5528"/>
<path d="M71.9934 33.6425V10.5758H76.8491V33.6425H71.9934ZM74.4448 7.441C73.5019 7.441 72.7005 7.14467 72.0405 6.55202C71.4119 5.92817 71.0977 5.13277 71.0977 4.16581C71.0977 3.19885 71.4119 2.41905 72.0405 1.82639C72.7005 1.20255 73.5019 0.890625 74.4448 0.890625C75.4191 0.890625 76.2205 1.20255 76.8491 1.82639C77.4776 2.41905 77.7919 3.19885 77.7919 4.16581C77.7919 5.13277 77.4776 5.92817 76.8491 6.55202C76.2205 7.14467 75.4191 7.441 74.4448 7.441Z" fill="#9F5528"/>
<path d="M41.2256 22.226V21.5242C41.2256 19.0912 41.7127 17.0169 42.687 15.3013C43.6927 13.5857 45.0127 12.2601 46.647 11.3243C48.2813 10.3885 50.0727 9.92065 52.0212 9.92065C54.2841 9.92065 56.0126 10.3417 57.2069 11.1839C58.4326 12.0261 59.3283 12.9307 59.894 13.8977H60.6483V10.5757H65.3626V38.368C65.3626 39.7716 64.9383 40.8946 64.0897 41.7368C63.2726 42.5789 62.1412 43 60.6955 43H45.0441V38.7891H59.1869C60.0983 38.7891 60.554 38.3212 60.554 37.3854V30.0397H59.7998C59.4541 30.6011 58.9669 31.1782 58.3383 31.7708C57.7098 32.3635 56.8769 32.847 55.8398 33.2213C54.8341 33.5956 53.5612 33.7827 52.0212 33.7827C50.0727 33.7827 48.2655 33.3304 46.5998 32.4259C44.9656 31.4901 43.6613 30.1644 42.687 28.4489C41.7127 26.7021 41.2256 24.6278 41.2256 22.226ZM53.3412 29.5718C55.4469 29.5718 57.1755 28.9167 58.5269 27.6067C59.9098 26.2654 60.6012 24.4251 60.6012 22.0856V21.6645C60.6012 19.2627 59.9255 17.4224 58.5741 16.1435C57.2226 14.8334 55.4784 14.1784 53.3412 14.1784C51.267 14.1784 49.5384 14.8334 48.1555 16.1435C46.8041 17.4224 46.1284 19.2627 46.1284 21.6645V22.0856C46.1284 24.4251 46.8041 26.2654 48.1555 27.6067C49.5384 28.9167 51.267 29.5718 53.3412 29.5718Z" fill="#9F5528"/>
<path d="M30.8137 33.6425V10.5758H35.6694V33.6425H30.8137ZM33.2651 7.441C32.3222 7.441 31.5208 7.14467 30.8608 6.55202C30.2323 5.92817 29.918 5.13277 29.918 4.16581C29.918 3.19885 30.2323 2.41905 30.8608 1.82639C31.5208 1.20255 32.3222 0.890625 33.2651 0.890625C34.2394 0.890625 35.0408 1.20255 35.6694 1.82639C36.2979 2.41905 36.6122 3.19885 36.6122 4.16581C36.6122 5.13277 36.2979 5.92817 35.6694 6.55202C35.0408 7.14467 34.2394 7.441 33.2651 7.441Z" fill="#9F5528"/>
<path d="M10.7485 34.2975C8.83138 34.2975 7.05567 33.8296 5.4214 32.8939C3.78712 31.9581 2.46713 30.6168 1.46142 28.8701C0.48714 27.0921 0 24.9555 0 22.4601V21.7582C0 19.2941 0.48714 17.173 1.46142 15.395C2.4357 13.6171 3.73998 12.2602 5.37425 11.3244C7.00853 10.3887 8.79995 9.92078 10.7485 9.92078C12.2571 9.92078 13.5142 10.1079 14.5199 10.4822C15.5571 10.8566 16.4056 11.34 17.0656 11.9327C17.7256 12.4941 18.2285 13.0868 18.5742 13.7106H19.3285V0.890625H24.1841V33.6425H19.4227V30.3673H18.6685C18.0713 31.3655 17.1599 32.27 15.9342 33.081C14.7399 33.892 13.0114 34.2975 10.7485 34.2975ZM12.1156 30.0866C14.2213 30.0866 15.9499 29.4159 17.3013 28.0747C18.6842 26.7334 19.3756 24.8151 19.3756 22.3197V21.8986C19.3756 19.4344 18.6999 17.5317 17.3485 16.1904C15.9971 14.8492 14.2528 14.1785 12.1156 14.1785C10.0414 14.1785 8.31281 14.8492 6.92996 16.1904C5.57854 17.5317 4.90283 19.4344 4.90283 21.8986V22.3197C4.90283 24.8151 5.57854 26.7334 6.92996 28.0747C8.31281 29.4159 10.0414 30.0866 12.1156 30.0866Z" fill="#9F5528"/>
</svg>
