<svg width="500" height="366" viewBox="0 0 500 366" fill="none" xmlns="http://www.w3.org/2000/svg">
<rect x="400.287" y="77.4453" width="95.8774" height="10.3793" fill="#3A4E5C"/>
<path d="M350.281 88.005V0H363.24V88.005H350.281Z" fill="#3A4E5C"/>
<path d="M298.303 89.765C293.857 89.765 289.873 89.0107 286.35 87.5021C282.912 85.9934 280.144 83.7723 278.047 80.8388C276.034 77.9053 275.027 74.3432 275.027 70.1525C275.027 65.878 276.034 62.3578 278.047 59.5919C280.144 56.7422 282.953 54.6049 286.476 53.1801C290.083 51.7553 294.151 51.0428 298.68 51.0428H317.552V47.0197C317.552 43.4157 316.461 40.5241 314.281 38.345C312.1 36.1658 308.745 35.0762 304.216 35.0762C299.77 35.0762 296.373 36.1239 294.025 38.2192C291.676 40.3146 290.125 43.0386 289.37 46.3911L277.292 42.4938C278.298 39.1412 279.892 36.1239 282.073 33.4418C284.337 30.676 287.315 28.4549 291.005 26.7786C294.696 25.1023 299.141 24.2642 304.341 24.2642C312.393 24.2642 318.726 26.3176 323.339 30.4245C327.952 34.5314 330.259 40.3565 330.259 47.8998V73.4212C330.259 75.9357 331.433 77.1929 333.781 77.1929H339.065V88.0049H329.378C326.442 88.0049 324.052 87.2506 322.207 85.742C320.361 84.2333 319.439 82.1798 319.439 79.5816V79.2044H317.552C316.881 80.4617 315.874 81.9284 314.532 83.6047C313.19 85.281 311.219 86.7477 308.619 88.0049C306.019 89.1783 302.58 89.765 298.303 89.765ZM300.19 79.0787C305.39 79.0787 309.584 77.612 312.771 74.6785C315.958 71.6611 317.552 67.5542 317.552 62.3578V61.1005H299.435C295.996 61.1005 293.228 61.8549 291.131 63.3635C289.034 64.7884 287.986 66.9256 287.986 69.7753C287.986 72.625 289.076 74.888 291.257 76.5643C293.438 78.2406 296.415 79.0787 300.19 79.0787Z" fill="#3A4E5C"/>
<path d="M246.213 88.006C242.439 88.006 239.42 86.8745 237.155 84.6115C234.974 82.3485 233.884 79.3312 233.884 75.5596V36.9631H216.773V26.0253H233.884V5.53271H246.842V26.0253H265.337V36.9631H246.842V73.2966C246.842 75.811 248.017 77.0682 250.365 77.0682H263.324V88.006H246.213Z" fill="#3A4E5C"/>
<path d="M192.133 88.005V26.0243H205.091V88.005H192.133ZM198.675 17.601C196.159 17.601 194.02 16.8048 192.258 15.2123C190.581 13.536 189.742 11.3987 189.742 8.8005C189.742 6.20226 190.581 4.1069 192.258 2.51443C194.02 0.838145 196.159 0 198.675 0C201.275 0 203.414 0.838145 205.091 2.51443C206.769 4.1069 207.607 6.20226 207.607 8.8005C207.607 11.3987 206.769 13.536 205.091 15.2123C203.414 16.8048 201.275 17.601 198.675 17.601Z" fill="#3A4E5C"/>
<path d="M110.02 57.3289V55.4431C110.02 48.9056 111.32 43.3319 113.92 38.7221C116.604 34.1123 120.126 30.5502 124.488 28.0358C128.849 25.5214 133.63 24.2642 138.83 24.2642C144.869 24.2642 149.482 25.3957 152.67 27.6586C155.941 29.9216 158.331 32.3522 159.841 34.9505H161.854V26.0243H174.435V100.703C174.435 104.474 173.303 107.492 171.038 109.755C168.857 112.018 165.838 113.149 161.98 113.149H120.21V101.834H157.954C160.386 101.834 161.602 100.577 161.602 98.0627V78.3244H159.589C158.667 79.833 157.367 81.3836 155.689 82.9761C154.012 84.5686 151.789 85.8677 149.021 86.8734C146.337 87.8792 142.94 88.3821 138.83 88.3821C133.63 88.3821 128.807 87.1668 124.362 84.7362C120.001 82.2218 116.52 78.6596 113.92 74.0499C111.32 69.3563 110.02 63.7826 110.02 57.3289ZM142.353 77.0672C147.973 77.0672 152.586 75.3071 156.192 71.7869C159.883 68.1829 161.728 63.2378 161.728 56.9517V55.8202C161.728 49.3665 159.925 44.4215 156.318 40.9851C152.712 37.4649 148.057 35.7048 142.353 35.7048C136.817 35.7048 132.204 37.4649 128.514 40.9851C124.907 44.4215 123.104 49.3665 123.104 55.8202V56.9517C123.104 63.2378 124.907 68.1829 128.514 71.7869C132.204 75.3071 136.817 77.0672 142.353 77.0672Z" fill="#3A4E5C"/>
<path d="M82.2342 88.005V26.0243H95.1928V88.005H82.2342ZM88.7764 17.601C86.2601 17.601 84.1213 16.8048 82.36 15.2123C80.6825 13.536 79.8438 11.3987 79.8438 8.8005C79.8438 6.20226 80.6825 4.1069 82.36 2.51443C84.1213 0.838145 86.2601 0 88.7764 0C91.3765 0 93.5153 0.838145 95.1928 2.51443C96.8703 4.1069 97.709 6.20226 97.709 8.8005C97.709 11.3987 96.8703 13.536 95.1928 15.2123C93.5153 16.8048 91.3765 17.601 88.7764 17.601Z" fill="#3A4E5C"/>
<path d="M28.6851 89.7651C23.5687 89.7651 18.8298 88.5079 14.4683 85.9935C10.1069 83.479 6.58414 79.875 3.90016 75.1814C1.30005 70.404 0 64.6627 0 57.9576V56.0718C0 49.4504 1.30005 43.7511 3.90016 38.9736C6.50027 34.1962 9.98106 30.5503 14.3425 28.0359C18.704 25.5215 23.4848 24.2642 28.6851 24.2642C32.711 24.2642 36.066 24.7671 38.75 25.7729C41.5179 26.7787 43.7825 28.0778 45.5438 29.6703C47.3052 31.1789 48.6472 32.7714 49.5698 34.4477H51.5828V0H64.5414V88.005H51.8344V79.2045H49.8214C48.2278 81.8866 45.7954 84.3172 42.5243 86.4964C39.3371 88.6755 34.724 89.7651 28.6851 89.7651ZM32.3336 78.4502C37.9532 78.4502 42.5663 76.6482 46.1729 73.0442C49.8634 69.4401 51.7086 64.2856 51.7086 57.5804V56.4489C51.7086 49.8276 49.9053 44.7149 46.2987 41.1109C42.6921 37.5069 38.0371 35.7049 32.3336 35.7049C26.7979 35.7049 22.1848 37.5069 18.4943 41.1109C14.8877 44.7149 13.0844 49.8276 13.0844 56.4489V57.5804C13.0844 64.2856 14.8877 69.4401 18.4943 73.0442C22.1848 76.6482 26.7979 78.4502 32.3336 78.4502Z" fill="#3A4E5C"/>
<path d="M20.1867 182.147L41.9943 182.122C46.772 182.118 50.6339 180.793 53.5801 178.148C56.5255 175.503 57.9956 171.894 57.9905 167.323L57.9892 165.797C57.9832 161.227 56.505 157.621 53.5545 154.981C50.6024 152.345 46.737 151.029 41.9585 151.034L20.1521 151.058L20.1867 182.147ZM0.120167 239.472L0 132.792L43.9208 132.742C50.6314 132.735 56.5557 134.075 61.6939 136.762C66.8304 139.448 70.8504 143.228 73.754 148.102C76.6576 152.975 78.1128 158.765 78.1196 165.47L78.1222 167.604C78.129 174.21 76.6359 179.977 73.6428 184.905C70.648 189.839 66.5854 193.654 61.4548 196.35C56.3226 199.048 50.5035 200.401 43.9975 200.409L20.2071 200.434L20.2506 239.449L0.120167 239.472Z" fill="#1E272E"/>
<path d="M134.59 241.455C125.845 241.465 118.345 239.874 112.089 236.68C105.833 233.486 101.05 228.92 97.7389 222.981C94.427 217.041 92.7669 210.007 92.7583 201.878L92.6816 132.689L112.812 132.666L112.89 202.466C112.897 208.969 114.758 214.098 118.474 217.852C122.189 221.607 127.554 223.481 134.57 223.472C141.585 223.464 146.945 221.578 150.652 217.815C154.359 214.053 156.209 208.92 156.202 202.416L156.126 132.618L176.255 132.595L176.331 201.784C176.342 209.915 174.696 216.948 171.401 222.898C168.102 228.844 163.328 233.421 157.079 236.63C150.829 239.837 143.333 241.445 134.59 241.455Z" fill="#1E272E"/>
<path d="M225.215 220.933L244.126 220.912C248.498 220.906 252.03 219.836 254.722 217.7C257.414 215.562 258.757 212.513 258.753 208.551L258.751 207.027C258.746 203.064 257.422 200.018 254.777 197.887C252.13 195.758 248.571 194.695 244.098 194.7L225.187 194.72L225.215 220.933ZM225.167 176.432L243.773 176.412C247.941 176.407 251.37 175.337 254.062 173.2C256.754 171.063 258.098 168.114 258.095 164.355L258.092 162.832C258.088 158.972 256.763 156.001 254.117 153.921C251.47 151.843 248.013 150.805 243.744 150.808L225.136 150.829L225.167 176.432ZM191.075 239.26L191.055 221.582L205.085 221.564L205.004 150.243L190.976 150.258L190.955 132.58L245.857 132.519C252.364 132.512 258.033 133.598 262.866 135.776C267.696 137.956 271.461 141.05 274.161 145.058C276.857 149.07 278.214 153.87 278.219 159.456L278.221 160.98C278.226 165.857 277.316 169.846 275.49 172.947C273.662 176.048 271.505 178.438 269.017 180.118C266.526 181.797 264.163 182.993 261.929 183.706L261.932 186.45C264.168 187.057 266.609 188.197 269.255 189.87C271.899 191.545 274.165 193.956 276.051 197.102C277.934 200.251 278.879 204.364 278.885 209.443L278.887 210.967C278.894 216.862 277.527 221.917 274.786 226.134C272.046 230.355 268.263 233.586 263.436 235.826C258.609 238.066 252.993 239.19 246.588 239.198L191.075 239.26Z" fill="#1E272E"/>
<path d="M293.345 239.141L293.225 132.462L313.356 132.439L313.453 220.831L362.256 220.776L362.278 239.063L293.345 239.141Z" fill="#1E272E"/>
<path d="M377.237 239.047L377.117 132.368L397.249 132.347L397.369 239.024L377.237 239.047Z" fill="#1E272E"/>
<path d="M455.357 241.093C442.139 241.11 431.662 237.439 423.928 230.08C416.193 222.723 412.317 212.186 412.302 198.47L412.273 172.867C412.258 159.153 416.11 148.607 423.829 141.23C431.546 133.857 442.014 130.162 455.233 130.146C468.349 130.132 478.495 133.702 485.671 140.856C492.846 148.011 496.44 157.837 496.454 170.333L496.455 171.247L476.631 171.27L476.629 169.745C476.62 163.448 474.861 158.269 471.351 154.208C467.838 150.149 462.472 148.123 455.253 148.129C448.135 148.138 442.546 150.329 438.485 154.702C434.422 159.076 432.396 165.022 432.405 172.539L432.433 198.751C432.442 206.169 434.482 212.084 438.553 216.498C442.625 220.915 448.219 223.119 455.336 223.109C462.555 223.102 467.916 221.039 471.42 216.92C474.922 212.801 476.67 207.642 476.663 201.445L476.661 198.701L496.486 198.681L496.488 200.814C496.505 213.309 492.932 223.143 485.771 230.314C478.611 237.486 468.473 241.079 455.357 241.093Z" fill="#1E272E"/>
<path d="M14.1502 364.054L0 257.391L19.9783 257.368L30.4519 350.015L33.1966 350.012L46.5133 257.337L81.2861 257.299L94.8099 349.942L97.5559 349.939L107.821 257.268L127.801 257.247L113.89 363.942L79.1167 363.98L65.2861 269.205L62.5415 269.207L48.9205 364.016L14.1502 364.054Z" fill="#1E272E"/>
<path d="M180.213 348.017C187.735 348.009 193.579 345.818 197.744 341.444C201.907 337.073 203.985 331.225 203.976 323.911L203.946 297.089C203.938 289.774 201.847 283.934 197.674 279.57C193.5 275.207 187.652 273.029 180.13 273.036C172.707 273.045 166.888 275.236 162.674 279.609C158.459 283.983 156.356 289.827 156.365 297.143L156.394 323.966C156.403 331.281 158.519 337.121 162.744 341.484C166.966 345.847 172.789 348.025 180.213 348.017ZM180.233 366C166.813 366.017 156.133 362.346 148.194 354.987C140.256 347.63 136.279 337.094 136.263 323.379L136.234 297.775C136.218 284.06 140.172 273.514 148.095 266.138C156.016 258.764 166.687 255.07 180.109 255.056C193.529 255.04 204.209 258.71 212.148 266.066C220.086 273.424 224.063 283.961 224.077 297.677L224.108 323.28C224.122 336.995 220.169 347.54 212.249 354.916C204.325 362.291 193.653 365.985 180.233 366Z" fill="#1E272E"/>
<path d="M258.859 305.254L282.955 305.227C287.733 305.222 291.467 303.923 294.159 301.329C296.851 298.734 298.195 295.303 298.191 291.036L298.189 289.512C298.183 285.245 296.857 281.818 294.211 279.23C291.562 276.643 287.803 275.352 282.921 275.357L258.826 275.384L258.859 305.254ZM238.794 363.798L238.674 257.119L285.038 257.066C291.748 257.059 297.595 258.222 302.578 260.552C307.563 262.883 311.43 266.181 314.179 270.445C316.93 274.708 318.309 279.736 318.315 285.528L318.316 287.356C318.324 293.757 316.805 298.94 313.759 302.906C310.713 306.872 306.954 309.773 302.483 311.607L302.486 314.348C306.553 314.548 309.706 315.942 311.946 318.529C314.185 321.118 315.307 324.546 315.313 328.812L315.351 363.711L295.22 363.734L295.185 331.733C295.182 329.292 294.544 327.311 293.273 325.788C291.999 324.267 289.888 323.508 286.941 323.51L258.88 323.542L258.924 363.778L238.794 363.798Z" fill="#1E272E"/>
<path d="M332.125 363.692L332.006 257.014L352.136 256.992L352.185 299.359L354.931 299.355L389.502 256.949L415.275 256.919L370.802 309.546L416.919 363.598L390.382 363.627L354.953 320.387L352.208 320.39L352.256 363.669L332.125 363.692Z" fill="#1E272E"/>
<path d="M459.622 365.682C451.387 365.691 444.116 364.226 437.811 361.287C431.501 358.348 426.565 354.138 423.002 348.655C419.436 343.173 417.649 336.571 417.642 328.849L417.637 324.583L437.463 324.56L437.467 328.826C437.475 335.227 439.464 340.026 443.432 343.222C447.4 346.417 452.79 348.011 459.602 348.005C466.515 347.995 471.674 346.618 475.079 343.872C478.48 341.124 480.179 337.616 480.174 333.35C480.172 330.405 479.331 328.018 477.651 326.19C475.972 324.363 473.53 322.867 470.325 321.703C467.121 320.539 463.231 319.451 458.654 318.439L455.146 317.682C447.824 316.066 441.54 314.015 436.305 311.531C431.064 309.047 427.044 305.775 424.245 301.715C421.443 297.654 420.04 292.372 420.034 285.869C420.025 279.369 421.569 273.804 424.666 269.176C427.762 264.551 432.13 260.99 437.77 258.494C443.41 255.998 450.043 254.747 457.669 254.738C465.295 254.729 472.082 256.016 478.032 258.601C483.983 261.186 488.664 265.041 492.076 270.167C495.488 275.295 497.198 281.719 497.206 289.44L497.211 294.012L477.386 294.035L477.381 289.462C477.376 285.399 476.584 282.124 475.006 279.635C473.425 277.149 471.161 275.323 468.213 274.158C465.261 272.992 461.753 272.411 457.688 272.415C451.588 272.422 447.09 273.571 444.196 275.861C441.299 278.151 439.853 281.276 439.859 285.236C439.861 287.88 440.55 290.115 441.926 291.94C443.3 293.767 445.361 295.289 448.107 296.505C450.853 297.722 454.363 298.784 458.635 299.694L462.143 300.452C469.769 302.07 476.405 304.145 482.052 306.679C487.697 309.213 492.097 312.56 495.254 316.721C498.41 320.886 499.992 326.218 500 332.717C500.006 339.221 498.361 344.938 495.063 349.868C491.764 354.8 487.091 358.666 481.045 361.466C474.998 364.268 467.857 365.673 459.622 365.682Z" fill="#1E272E"/>
</svg>
