<svg width="500" height="43" viewBox="0 0 500 43" fill="none" xmlns="http://www.w3.org/2000/svg">
<path d="M194.447 16.6023L200.954 16.5947C202.38 16.5934 203.532 16.2008 204.411 15.4169C205.29 14.6329 205.729 13.5635 205.728 12.2086L205.727 11.7565C205.725 10.4018 205.284 9.3333 204.404 8.55085C203.523 7.76941 202.369 7.37944 200.944 7.38096L194.436 7.38815L194.447 16.6023ZM188.459 33.5918L188.423 1.97447L201.529 1.95971C203.532 1.95769 205.299 2.35485 206.833 3.15118C208.365 3.94726 209.565 5.06755 210.431 6.51206C211.298 7.95631 211.732 9.67215 211.734 11.6596L211.735 12.2918C211.737 14.2497 211.291 15.959 210.398 17.4197C209.505 18.8818 208.292 20.0125 206.761 20.8116C205.23 21.6112 203.493 22.0122 201.552 22.0144L194.453 22.022L194.466 33.585L188.459 33.5918Z" fill="white"/>
<path d="M228.585 34.1792C225.975 34.1822 223.737 33.7105 221.87 32.764C220.004 31.8174 218.576 30.4641 217.588 28.7038C216.6 26.9435 216.105 24.8588 216.102 22.4496L216.079 1.9436L222.086 1.93679L222.109 22.6238C222.111 24.5511 222.667 26.0711 223.776 27.1837C224.884 28.2968 226.485 28.8521 228.579 28.8496C230.672 28.847 232.272 28.2881 233.378 27.1727C234.484 26.0579 235.036 24.5366 235.034 22.609L235.011 1.9224L241.018 1.91558L241.041 22.4216C241.044 24.8314 240.553 26.916 239.569 28.6792C238.585 30.4415 237.16 31.7981 235.296 32.7492C233.431 33.6995 231.194 34.1762 228.585 34.1792Z" fill="white"/>
<path d="M255.629 28.0973L261.272 28.0909C262.576 28.0894 263.63 27.7721 264.434 27.1391C265.237 26.5056 265.638 25.6017 265.637 24.4275L265.636 23.9758C265.635 22.8014 265.239 21.8984 264.45 21.2669C263.66 20.6359 262.598 20.321 261.263 20.3223L255.62 20.3284L255.629 28.0973ZM255.614 14.9082L261.167 14.9022C262.41 14.9009 263.433 14.5837 264.237 13.9504C265.04 13.3168 265.441 12.443 265.44 11.3289L265.439 10.8776C265.438 9.73347 265.043 8.85309 264.253 8.23647C263.463 7.6206 262.432 7.31305 261.158 7.31381L255.605 7.32024L255.614 14.9082ZM245.441 33.5288L245.435 28.2897L249.622 28.2844L249.598 7.14647L245.411 7.15101L245.405 1.91149L261.788 1.89332C263.73 1.8913 265.422 2.21311 266.864 2.85876C268.305 3.50491 269.429 4.4219 270.234 5.60971C271.039 6.7989 271.444 8.22132 271.445 9.87696L271.446 10.3286C271.448 11.7742 271.176 12.9564 270.631 13.8754C270.086 14.7944 269.442 15.5028 268.699 16.0005C267.956 16.4983 267.251 16.8528 266.584 17.064L266.585 17.8773C267.252 18.0572 267.981 18.3951 268.77 18.8908C269.56 19.3873 270.235 20.1018 270.798 21.0345C271.36 21.9676 271.642 23.1867 271.644 24.6918L271.645 25.1435C271.647 26.8906 271.239 28.389 270.421 29.6386C269.603 30.8898 268.474 31.8473 267.034 32.5111C265.593 33.1749 263.918 33.5081 262.007 33.5106L245.441 33.5288Z" fill="white"/>
<path d="M275.959 33.4941L275.923 1.8772L281.93 1.87038L281.959 28.0676L296.522 28.0513L296.529 33.471L275.959 33.4941Z" fill="white"/>
<path d="M300.993 33.4663L300.957 1.84899L306.964 1.84293L307 33.4595L300.993 33.4663Z" fill="white"/>
<path d="M324.304 34.0722C320.359 34.0773 317.233 32.9893 314.925 30.8083C312.617 28.6278 311.46 25.5049 311.456 21.4397L311.447 13.8517C311.443 9.787 312.592 6.66148 314.895 4.47516C317.198 2.28986 320.322 1.19481 324.267 1.19001C328.181 1.18597 331.208 2.24405 333.349 4.36423C335.491 6.48493 336.563 9.39703 336.567 13.1005L336.568 13.3716L330.652 13.3784L330.651 12.9264C330.649 11.0601 330.124 9.52513 329.076 8.32142C328.028 7.11846 326.427 6.51799 324.273 6.52001C322.149 6.52254 320.481 7.17185 319.269 8.46794C318.057 9.76428 317.452 11.5264 317.455 13.7544L317.463 21.523C317.466 23.7214 318.074 25.4748 319.289 26.783C320.504 28.0919 322.174 28.745 324.298 28.7422C326.452 28.7402 328.051 28.1288 329.097 26.9079C330.142 25.687 330.664 24.1582 330.662 22.3215L330.661 21.5082L336.577 21.5022L336.577 22.1344C336.582 25.8377 335.516 28.7521 333.379 30.8776C331.243 33.0031 328.218 34.068 324.304 34.0722Z" fill="white"/>
<path d="M355.02 32.4004L350.798 0.787992L356.759 0.781179L359.885 28.2395L360.704 28.2388L364.678 0.772091L375.054 0.760735L379.09 28.2179L379.909 28.2172L382.972 0.751646L388.934 0.745211L384.783 32.3671L374.407 32.3784L370.28 4.28933L369.461 4.29009L365.396 32.389L355.02 32.4004Z" fill="white"/>
<path d="M404.575 27.6469C406.819 27.6444 408.563 26.995 409.806 25.6986C411.048 24.4034 411.668 22.6702 411.666 20.5023L411.657 12.5531C411.654 10.3849 411.03 8.65419 409.785 7.36087C408.539 6.06756 406.794 5.42204 404.55 5.42431C402.335 5.42683 400.598 6.07614 399.341 7.37223C398.083 8.66858 397.456 10.4008 397.458 12.569L397.467 20.5185C397.47 22.6867 398.101 24.4174 399.362 25.7107C400.622 27.0038 402.359 27.6492 404.575 27.6469ZM404.581 32.9765C400.576 32.9816 397.389 31.8936 395.02 29.7126C392.651 27.5321 391.464 24.4095 391.46 20.3448L391.451 12.7564C391.446 8.69142 392.626 5.56591 394.99 3.37984C397.354 1.19428 400.538 0.0994759 404.544 0.0954399C408.548 0.0906448 411.735 1.17838 414.104 3.35864C416.473 5.53915 417.66 8.66201 417.664 12.7272L417.673 20.3152C417.677 24.3802 416.498 27.5056 414.134 29.6914C411.77 31.8772 408.585 32.9723 404.581 32.9765Z" fill="white"/>
<path d="M428.042 14.9731L435.232 14.9652C436.658 14.9637 437.772 14.5785 438.576 13.8097C439.379 13.0406 439.78 12.0238 439.779 10.7592L439.778 10.3076C439.777 9.04303 439.381 8.02723 438.591 7.26018C437.801 6.4935 436.679 6.11073 435.222 6.11225L428.032 6.1202L428.042 14.9731ZM422.054 32.3242L422.019 0.706902L435.854 0.69138C437.856 0.68936 439.601 1.03376 441.088 1.72459C442.575 2.41542 443.729 3.39272 444.55 4.65651C445.371 5.92004 445.782 7.4101 445.784 9.1267L445.784 9.66849C445.787 11.5655 445.333 13.1018 444.424 14.2772C443.515 15.4527 442.394 16.3122 441.06 16.8559L441.06 17.6684C442.274 17.7277 443.215 18.1408 443.883 18.9076C444.551 19.6749 444.886 20.6907 444.888 21.955L444.9 32.2985L438.892 32.3053L438.882 22.8209C438.881 22.0975 438.691 21.5101 438.311 21.0588C437.931 20.608 437.301 20.383 436.422 20.3838L428.048 20.3932L428.061 32.3182L422.054 32.3242Z" fill="white"/>
<path d="M449.906 32.2915L449.87 0.674562L455.877 0.668127L455.892 13.2246L456.711 13.2234L467.027 0.655256L474.718 0.646547L461.447 16.2439L475.209 32.2635L467.29 32.2722L456.718 19.4568L455.899 19.4579L455.913 32.2847L449.906 32.2915Z" fill="white"/>
<path d="M487.952 32.8813C485.494 32.8841 483.325 32.45 481.443 31.5789C479.56 30.7079 478.087 29.4599 477.024 27.8349C475.96 26.2102 475.427 24.2536 475.424 21.965L475.423 20.7005L481.339 20.6937L481.34 21.9582C481.343 23.8553 481.936 25.2774 483.12 26.2247C484.304 27.1717 485.913 27.6442 487.945 27.6422C490.008 27.6394 491.548 27.2312 492.564 26.4174C493.579 25.6029 494.086 24.5634 494.084 23.2988C494.084 22.426 493.833 21.7187 493.331 21.1768C492.83 20.6353 492.102 20.1921 491.145 19.8471C490.189 19.5021 489.028 19.1796 487.663 18.8798L486.616 18.6552C484.431 18.1763 482.556 17.5686 480.993 16.8323C479.43 16.0963 478.23 15.1265 477.395 13.9231C476.559 12.7196 476.14 11.1542 476.138 9.22684C476.136 7.30024 476.596 5.65104 477.521 4.27922C478.444 2.90842 479.748 1.85312 481.431 1.11333C483.114 0.373787 485.093 0.0027504 487.369 0.000228882C489.644 -0.00254822 491.67 0.379086 493.445 1.14513C495.221 1.91117 496.618 3.05381 497.636 4.57302C498.654 6.09274 499.164 7.99675 499.167 10.285L499.168 11.6401L493.252 11.6469L493.251 10.2915C493.249 9.08751 493.013 8.11677 492.542 7.37924C492.07 6.64222 491.395 6.10107 490.515 5.75578C489.634 5.41024 488.587 5.2381 487.374 5.23936C485.554 5.24138 484.212 5.58175 483.348 6.26046C482.484 6.93918 482.052 7.86537 482.054 9.03905C482.055 9.82276 482.26 10.4851 482.671 11.026C483.081 11.5676 483.696 12.0187 484.515 12.3791C485.335 12.7395 486.382 13.0545 487.657 13.3241L488.704 13.5486C490.979 14.0282 492.96 14.6434 494.645 15.3943C496.329 16.1452 497.642 17.1373 498.584 18.3705C499.526 19.6048 499.998 21.1851 500.001 23.1114C500.002 25.039 499.511 26.7334 498.527 28.1946C497.543 29.6562 496.148 30.802 494.344 31.6319C492.54 32.4623 490.409 32.8788 487.952 32.8813Z" fill="white"/>
<rect x="144.303" y="29.7124" width="35.926" height="3.86274" fill="#A9B0B6"/>
<path d="M131.253 33.6425V0.890625H136.109V33.6425H131.253Z" fill="#A9B0B6"/>
<path d="M111.776 34.2976C110.11 34.2976 108.618 34.0169 107.298 33.4555C106.009 32.894 104.972 32.0674 104.186 30.9757C103.432 29.8839 103.055 28.5583 103.055 26.9987C103.055 25.4079 103.432 24.0978 104.186 23.0684C104.972 22.0079 106.025 21.2125 107.345 20.6822C108.696 20.152 110.22 19.8868 111.917 19.8868H118.989V18.3896C118.989 17.0483 118.58 15.9722 117.763 15.1612C116.946 14.3502 115.689 13.9447 113.992 13.9447C112.326 13.9447 111.053 14.3346 110.173 15.1144C109.293 15.8942 108.712 16.908 108.429 18.1557L103.903 16.7052C104.28 15.4575 104.878 14.3346 105.695 13.3365C106.543 12.3071 107.659 11.4805 109.042 10.8567C110.425 10.2328 112.09 9.9209 114.039 9.9209C117.056 9.9209 119.429 10.6851 121.157 12.2135C122.886 13.742 123.75 15.9098 123.75 18.7171V28.2152C123.75 29.1509 124.19 29.6188 125.07 29.6188H127.05V33.6426H123.42C122.32 33.6426 121.425 33.3619 120.733 32.8004C120.042 32.239 119.696 31.4747 119.696 30.5078V30.3674H118.989C118.737 30.8353 118.36 31.3812 117.857 32.005C117.355 32.6289 116.616 33.1747 115.642 33.6426C114.667 34.0793 113.379 34.2976 111.776 34.2976ZM112.483 30.3206C114.432 30.3206 116.003 29.7748 117.197 28.683C118.392 27.5601 118.989 26.0317 118.989 24.0978V23.6299H112.2C110.912 23.6299 109.875 23.9106 109.089 24.4721C108.303 25.0024 107.91 25.7978 107.91 26.8583C107.91 27.9188 108.319 28.761 109.136 29.3849C109.953 30.0087 111.069 30.3206 112.483 30.3206Z" fill="#A9B0B6"/>
<path d="M92.2579 33.6429C90.8436 33.6429 89.7122 33.2218 88.8637 32.3796C88.0465 31.5374 87.6379 30.4145 87.6379 29.0108V14.6468H81.2266V10.5762H87.6379V2.94971H92.4936V10.5762H99.4236V14.6468H92.4936V28.1686C92.4936 29.1044 92.9336 29.5723 93.8136 29.5723H98.6693V33.6429H92.2579Z" fill="#A9B0B6"/>
<path d="M71.9934 33.6425V10.5758H76.8491V33.6425H71.9934ZM74.4448 7.441C73.5019 7.441 72.7005 7.14467 72.0405 6.55202C71.4119 5.92817 71.0977 5.13277 71.0977 4.16581C71.0977 3.19885 71.4119 2.41905 72.0405 1.82639C72.7005 1.20255 73.5019 0.890625 74.4448 0.890625C75.4191 0.890625 76.2205 1.20255 76.8491 1.82639C77.4776 2.41905 77.7919 3.19885 77.7919 4.16581C77.7919 5.13277 77.4776 5.92817 76.8491 6.55202C76.2205 7.14467 75.4191 7.441 74.4448 7.441Z" fill="#A9B0B6"/>
<path d="M41.2256 22.2262V21.5244C41.2256 19.0914 41.7127 17.0171 42.687 15.3016C43.6927 13.586 45.0127 12.2603 46.647 11.3246C48.2813 10.3888 50.0727 9.9209 52.0212 9.9209C54.2841 9.9209 56.0126 10.342 57.2069 11.1842C58.4326 12.0264 59.3283 12.931 59.894 13.8979H60.6483V10.5759H65.3626V38.3682C65.3626 39.7719 64.9383 40.8948 64.0897 41.737C63.2726 42.5792 62.1412 43.0003 60.6955 43.0003H45.0441V38.7893H59.1869C60.0983 38.7893 60.554 38.3214 60.554 37.3857V30.0399H59.7998C59.4541 30.6014 58.9669 31.1784 58.3383 31.7711C57.7098 32.3637 56.8769 32.8472 55.8398 33.2215C54.8341 33.5958 53.5612 33.783 52.0212 33.783C50.0727 33.783 48.2655 33.3307 46.5998 32.4261C44.9656 31.4903 43.6613 30.1647 42.687 28.4491C41.7127 26.7023 41.2256 24.628 41.2256 22.2262ZM53.3412 29.572C55.4469 29.572 57.1755 28.917 58.5269 27.6069C59.9098 26.2656 60.6012 24.4253 60.6012 22.0859V21.6648C60.6012 19.263 59.9255 17.4226 58.5741 16.1438C57.2226 14.8337 55.4784 14.1786 53.3412 14.1786C51.267 14.1786 49.5384 14.8337 48.1555 16.1438C46.8041 17.4226 46.1284 19.263 46.1284 21.6648V22.0859C46.1284 24.4253 46.8041 26.2656 48.1555 27.6069C49.5384 28.917 51.267 29.572 53.3412 29.572Z" fill="#A9B0B6"/>
<path d="M30.8137 33.6425V10.5758H35.6694V33.6425H30.8137ZM33.2651 7.441C32.3222 7.441 31.5208 7.14467 30.8608 6.55202C30.2323 5.92817 29.918 5.13277 29.918 4.16581C29.918 3.19885 30.2323 2.41905 30.8608 1.82639C31.5208 1.20255 32.3222 0.890625 33.2651 0.890625C34.2394 0.890625 35.0408 1.20255 35.6694 1.82639C36.2979 2.41905 36.6122 3.19885 36.6122 4.16581C36.6122 5.13277 36.2979 5.92817 35.6694 6.55202C35.0408 7.14467 34.2394 7.441 33.2651 7.441Z" fill="#A9B0B6"/>
<path d="M10.7485 34.2975C8.83138 34.2975 7.05567 33.8296 5.4214 32.8939C3.78712 31.9581 2.46713 30.6168 1.46142 28.8701C0.48714 27.0921 0 24.9555 0 22.4601V21.7582C0 19.2941 0.48714 17.173 1.46142 15.395C2.4357 13.6171 3.73998 12.2602 5.37425 11.3244C7.00853 10.3887 8.79995 9.92078 10.7485 9.92078C12.2571 9.92078 13.5142 10.1079 14.5199 10.4822C15.5571 10.8566 16.4056 11.34 17.0656 11.9327C17.7256 12.4941 18.2285 13.0868 18.5742 13.7106H19.3285V0.890625H24.1841V33.6425H19.4227V30.3673H18.6685C18.0713 31.3655 17.1599 32.27 15.9342 33.081C14.7399 33.892 13.0114 34.2975 10.7485 34.2975ZM12.1156 30.0866C14.2213 30.0866 15.9499 29.4159 17.3013 28.0747C18.6842 26.7334 19.3756 24.8151 19.3756 22.3197V21.8986C19.3756 19.4344 18.6999 17.5317 17.3485 16.1904C15.9971 14.8492 14.2528 14.1785 12.1156 14.1785C10.0414 14.1785 8.31281 14.8492 6.92996 16.1904C5.57854 17.5317 4.90283 19.4344 4.90283 21.8986V22.3197C4.90283 24.8151 5.57854 26.7334 6.92996 28.0747C8.31281 29.4159 10.0414 30.0866 12.1156 30.0866Z" fill="#A9B0B6"/>
</svg>
