<svg width="500" height="43" viewBox="0 0 500 43" fill="none" xmlns="http://www.w3.org/2000/svg">
<path d="M194.447 16.6017L200.954 16.5942C202.38 16.5929 203.532 16.2003 204.411 15.4163C205.29 14.6324 205.729 13.5629 205.728 12.208L205.727 11.756C205.725 10.4013 205.284 9.33277 204.404 8.55032C203.523 7.76888 202.369 7.37891 200.944 7.38042L194.436 7.38762L194.447 16.6017ZM188.459 33.5913L188.423 1.97393L201.529 1.95917C203.532 1.95715 205.299 2.35431 206.833 3.15064C208.365 3.94672 209.565 5.06702 210.431 6.51152C211.298 7.95578 211.732 9.67162 211.734 11.659L211.735 12.2913C211.737 14.2492 211.291 15.9585 210.398 17.4192C209.505 18.8813 208.292 20.012 206.761 20.8111C205.23 21.6107 203.493 22.0116 201.552 22.0139L194.453 22.0215L194.466 33.5845L188.459 33.5913Z" fill="white"/>
<path d="M228.585 34.1787C225.975 34.1817 223.737 33.71 221.87 32.7635C220.004 31.817 218.576 30.4636 217.588 28.7033C216.6 26.943 216.105 24.8583 216.102 22.4491L216.079 1.94306L222.086 1.93624L222.109 22.6233C222.111 24.5506 222.667 26.0706 223.776 27.1832C224.884 28.2963 226.485 28.8516 228.579 28.8491C230.672 28.8465 232.272 28.2876 233.378 27.1722C234.484 26.0573 235.036 24.5361 235.034 22.6085L235.011 1.92186L241.018 1.91504L241.041 22.4211C241.044 24.8309 240.553 26.9155 239.569 28.6787C238.585 30.441 237.16 31.7976 235.296 32.7487C233.431 33.699 231.194 34.1757 228.585 34.1787Z" fill="white"/>
<path d="M255.629 28.0973L261.272 28.0909C262.576 28.0894 263.63 27.7721 264.434 27.1391C265.237 26.5055 265.638 25.6017 265.637 24.4275L265.636 23.9758C265.635 22.8014 265.239 21.8984 264.45 21.2669C263.66 20.6359 262.598 20.321 261.263 20.3223L255.62 20.3283L255.629 28.0973ZM255.614 14.9082L261.167 14.9022C262.41 14.9009 263.433 14.5836 264.237 13.9503C265.04 13.3168 265.441 12.443 265.44 11.3289L265.439 10.8776C265.438 9.73343 265.043 8.85305 264.253 8.23642C263.463 7.62056 262.432 7.31301 261.158 7.31376L255.605 7.3202L255.614 14.9082ZM245.441 33.5288L245.435 28.2897L249.622 28.2844L249.598 7.14642L245.411 7.15096L245.405 1.91144L261.788 1.89326C263.73 1.89124 265.422 2.21306 266.864 2.85871C268.305 3.50486 269.429 4.42185 270.234 5.60966C271.039 6.79886 271.444 8.22128 271.445 9.87692L271.446 10.3286C271.448 11.7741 271.176 12.9564 270.631 13.8754C270.086 14.7944 269.442 15.5028 268.699 16.0005C267.956 16.4982 267.251 16.8527 266.584 17.064L266.585 17.8772C267.252 18.0572 267.981 18.3951 268.77 18.8908C269.56 19.3873 270.235 20.1018 270.798 21.0344C271.36 21.9676 271.642 23.1867 271.644 24.6918L271.645 25.1434C271.647 26.8906 271.239 28.389 270.421 29.6386C269.603 30.8898 268.474 31.8473 267.034 32.5111C265.593 33.1749 263.918 33.5081 262.007 33.5106L245.441 33.5288Z" fill="white"/>
<path d="M275.959 33.4937L275.923 1.87666L281.93 1.86984L281.959 28.0671L296.522 28.0508L296.529 33.4706L275.959 33.4937Z" fill="white"/>
<path d="M300.993 33.4658L300.957 1.84845L306.964 1.84239L307 33.459L300.993 33.4658Z" fill="white"/>
<path d="M324.304 34.0718C320.359 34.0768 317.233 32.9888 314.925 30.8078C312.617 28.6273 311.46 25.5044 311.456 21.4392L311.447 13.8512C311.443 9.78647 312.592 6.66095 314.895 4.47463C317.198 2.28931 320.322 1.19426 324.267 1.18947C328.181 1.18543 331.208 2.2435 333.349 4.3637C335.491 6.48439 336.563 9.39651 336.567 13.1L336.568 13.3711L330.652 13.3779L330.651 12.9259C330.649 11.0596 330.124 9.5246 329.076 8.32089C328.028 7.11793 326.427 6.51746 324.273 6.51948C322.149 6.522 320.481 7.17131 319.269 8.46741C318.057 9.76375 317.452 11.5259 317.455 13.7539L317.463 21.5225C317.466 23.7209 318.074 25.4743 319.289 26.7825C320.504 28.0914 322.174 28.7445 324.298 28.7417C326.452 28.7397 328.051 28.1283 329.097 26.9074C330.142 25.6865 330.664 24.1577 330.662 22.321L330.661 21.5077L336.577 21.5017L336.577 22.1339C336.582 25.8372 335.516 28.7516 333.379 30.8771C331.243 33.0026 328.218 34.0675 324.304 34.0718Z" fill="white"/>
<path d="M355.02 32.4009L350.798 0.788429L356.759 0.781614L359.885 28.24L360.704 28.2392L364.678 0.772528L375.054 0.761169L379.09 28.2184L379.909 28.2177L382.972 0.752083L388.934 0.745647L384.783 32.3676L374.407 32.3789L370.28 4.28978L369.461 4.29053L365.396 32.3895L355.02 32.4009Z" fill="white"/>
<path d="M404.575 27.6469C406.819 27.6444 408.563 26.995 409.806 25.6986C411.048 24.4034 411.668 22.6701 411.666 20.5022L411.657 12.553C411.654 10.3849 411.03 8.65415 409.785 7.36083C408.539 6.06751 406.794 5.42199 404.55 5.42426C402.335 5.42678 400.598 6.0761 399.341 7.37219C398.083 8.66854 397.456 10.4008 397.458 12.5689L397.467 20.5185C397.47 22.6867 398.101 24.4174 399.362 25.7107C400.622 27.0038 402.359 27.6492 404.575 27.6469ZM404.581 32.9765C400.576 32.9816 397.389 31.8936 395.02 29.7126C392.651 27.5321 391.464 24.4095 391.46 20.3447L391.451 12.7563C391.446 8.69138 392.626 5.56586 394.99 3.37979C397.354 1.19422 400.538 0.0994225 404.544 0.0953827C408.548 0.0905876 411.735 1.17832 414.104 3.35859C416.473 5.5391 417.66 8.66197 417.664 12.7272L417.673 20.3152C417.677 24.3802 416.498 27.5056 414.134 29.6914C411.77 31.8772 408.585 32.9723 404.581 32.9765Z" fill="white"/>
<path d="M428.042 14.9731L435.232 14.9651C436.658 14.9636 437.772 14.5785 438.576 13.8096C439.379 13.0406 439.78 12.0238 439.779 10.7592L439.778 10.3075C439.777 9.04299 439.381 8.02719 438.591 7.26014C437.801 6.49346 436.679 6.11069 435.222 6.1122L428.032 6.12015L428.042 14.9731ZM422.054 32.3242L422.019 0.70685L435.854 0.691326C437.856 0.689306 439.601 1.03371 441.088 1.72454C442.575 2.41537 443.729 3.39268 444.55 4.65646C445.371 5.92 445.782 7.41006 445.784 9.12666L445.784 9.66845C445.787 11.5655 445.333 13.1018 444.424 14.2772C443.515 15.4527 442.394 16.3122 441.06 16.8559L441.06 17.6684C442.274 17.7277 443.215 18.1408 443.883 18.9076C444.551 19.6749 444.886 20.6907 444.888 21.955L444.9 32.2985L438.892 32.3053L438.882 22.8208C438.881 22.0974 438.691 21.5101 438.311 21.0588C437.931 20.608 437.301 20.383 436.422 20.3837L428.048 20.3932L428.061 32.3182L422.054 32.3242Z" fill="white"/>
<path d="M449.906 32.2915L449.87 0.674507L455.877 0.668072L455.892 13.2245L456.711 13.2234L467.027 0.655201L474.718 0.646492L461.447 16.2439L475.209 32.2635L467.29 32.2722L456.718 19.4568L455.899 19.4579L455.913 32.2847L449.906 32.2915Z" fill="white"/>
<path d="M487.952 32.8813C485.494 32.8841 483.325 32.45 481.443 31.5789C479.56 30.7079 478.087 29.4599 477.024 27.8349C475.96 26.2102 475.427 24.2535 475.424 21.965L475.423 20.7004L481.339 20.6936L481.34 21.9582C481.343 23.8552 481.936 25.2774 483.12 26.2247C484.304 27.1717 485.913 27.6442 487.945 27.6422C490.008 27.6394 491.548 27.2311 492.564 26.4174C493.579 25.6029 494.086 24.5634 494.084 23.2988C494.084 22.426 493.833 21.7186 493.331 21.1767C492.83 20.6353 492.102 20.1921 491.145 19.8471C490.189 19.502 489.028 19.1796 487.663 18.8797L486.616 18.6552C484.431 18.1763 482.556 17.5686 480.993 16.8322C479.43 16.0962 478.23 15.1265 477.395 13.923C476.559 12.7196 476.14 11.1542 476.138 9.2268C476.136 7.3002 476.596 5.651 477.521 4.27918C478.444 2.90837 479.748 1.85307 481.431 1.11328C483.114 0.373734 485.093 0.00270081 487.369 0.000175476C489.644 -0.00260162 491.67 0.379036 493.445 1.14508C495.221 1.91113 496.618 3.05376 497.636 4.57298C498.654 6.0927 499.164 7.99671 499.167 10.285L499.168 11.64L493.252 11.6468L493.251 10.2914C493.249 9.08747 493.013 8.11673 492.542 7.3792C492.07 6.64218 491.395 6.10103 490.515 5.75574C489.634 5.4102 488.587 5.23806 487.374 5.23932C485.554 5.24134 484.212 5.58171 483.348 6.26042C482.484 6.93913 482.052 7.86534 482.054 9.03901C482.055 9.82273 482.26 10.485 482.671 11.0259C483.081 11.5676 483.696 12.0186 484.515 12.3791C485.335 12.7395 486.382 13.0545 487.657 13.3241L488.704 13.5486C490.979 14.0282 492.96 14.6434 494.645 15.3943C496.329 16.1452 497.642 17.1373 498.584 18.3705C499.526 19.6048 499.998 21.1851 500.001 23.1114C500.002 25.039 499.511 26.7334 498.527 28.1946C497.543 29.6562 496.148 30.802 494.344 31.6319C492.54 32.4623 490.409 32.8788 487.952 32.8813Z" fill="white"/>
<rect x="144.303" y="29.7129" width="35.926" height="3.86275" fill="#C77234"/>
<path d="M131.253 33.6425V0.890625H136.109V33.6425H131.253Z" fill="#C77234"/>
<path d="M111.776 34.2977C110.11 34.2977 108.618 34.017 107.298 33.4555C106.009 32.894 104.972 32.0674 104.186 30.9757C103.432 29.884 103.055 28.5583 103.055 26.9987C103.055 25.4079 103.432 24.0978 104.186 23.0685C104.972 22.0079 106.025 21.2125 107.345 20.6822C108.696 20.152 110.22 19.8868 111.917 19.8868H118.989V18.3896C118.989 17.0483 118.58 15.9722 117.763 15.1612C116.946 14.3502 115.689 13.9447 113.992 13.9447C112.326 13.9447 111.053 14.3346 110.173 15.1144C109.293 15.8942 108.712 16.908 108.429 18.1557L103.903 16.7052C104.28 15.4575 104.878 14.3346 105.695 13.3365C106.543 12.3071 107.659 11.4805 109.042 10.8567C110.425 10.2328 112.09 9.9209 114.039 9.9209C117.056 9.9209 119.429 10.6851 121.157 12.2135C122.886 13.742 123.75 15.9098 123.75 18.7171V28.2152C123.75 29.151 124.19 29.6188 125.07 29.6188H127.05V33.6426H123.42C122.32 33.6426 121.425 33.3619 120.733 32.8005C120.042 32.239 119.696 31.4748 119.696 30.5078V30.3675H118.989C118.737 30.8353 118.36 31.3812 117.857 32.0051C117.355 32.6289 116.616 33.1748 115.642 33.6426C114.667 34.0793 113.379 34.2977 111.776 34.2977ZM112.483 30.3207C114.432 30.3207 116.003 29.7748 117.197 28.6831C118.392 27.5601 118.989 26.0317 118.989 24.0978V23.6299H112.2C110.912 23.6299 109.875 23.9106 109.089 24.4721C108.303 25.0024 107.91 25.7978 107.91 26.8583C107.91 27.9189 108.319 28.7611 109.136 29.3849C109.953 30.0087 111.069 30.3207 112.483 30.3207Z" fill="#C77234"/>
<path d="M92.2579 33.6429C90.8436 33.6429 89.7122 33.2218 88.8637 32.3796C88.0465 31.5375 87.6379 30.4145 87.6379 29.0109V14.6468H81.2266V10.5762H87.6379V2.94971H92.4936V10.5762H99.4236V14.6468H92.4936V28.1687C92.4936 29.1045 92.9336 29.5723 93.8136 29.5723H98.6693V33.6429H92.2579Z" fill="#C77234"/>
<path d="M71.9934 33.6425V10.5758H76.8491V33.6425H71.9934ZM74.4448 7.44101C73.5019 7.44101 72.7005 7.14468 72.0405 6.55203C71.4119 5.92818 71.0977 5.13278 71.0977 4.16582C71.0977 3.19886 71.4119 2.41905 72.0405 1.8264C72.7005 1.20255 73.5019 0.890625 74.4448 0.890625C75.4191 0.890625 76.2205 1.20255 76.8491 1.8264C77.4776 2.41905 77.7919 3.19886 77.7919 4.16582C77.7919 5.13278 77.4776 5.92818 76.8491 6.55203C76.2205 7.14468 75.4191 7.44101 74.4448 7.44101Z" fill="#C77234"/>
<path d="M41.2256 22.2263V21.5244C41.2256 19.0914 41.7127 17.0171 42.687 15.3016C43.6927 13.586 45.0127 12.2603 46.647 11.3246C48.2813 10.3888 50.0727 9.9209 52.0212 9.9209C54.2841 9.9209 56.0126 10.342 57.2069 11.1842C58.4326 12.0264 59.3283 12.931 59.894 13.8979H60.6483V10.5759H65.3626V38.3683C65.3626 39.7719 64.9383 40.8949 64.0897 41.7371C63.2726 42.5792 62.1412 43.0003 60.6955 43.0003H45.0441V38.7894H59.1869C60.0983 38.7894 60.554 38.3215 60.554 37.3857V30.0399H59.7998C59.4541 30.6014 58.9669 31.1785 58.3383 31.7711C57.7098 32.3638 56.8769 32.8472 55.8398 33.2216C54.8341 33.5959 53.5612 33.783 52.0212 33.783C50.0727 33.783 48.2655 33.3307 46.5998 32.4261C44.9656 31.4904 43.6613 30.1647 42.687 28.4491C41.7127 26.7024 41.2256 24.6281 41.2256 22.2263ZM53.3412 29.5721C55.4469 29.5721 57.1755 28.917 58.5269 27.6069C59.9098 26.2657 60.6012 24.4253 60.6012 22.0859V21.6648C60.6012 19.263 59.9255 17.4226 58.5741 16.1438C57.2226 14.8337 55.4784 14.1786 53.3412 14.1786C51.267 14.1786 49.5384 14.8337 48.1555 16.1438C46.8041 17.4226 46.1284 19.263 46.1284 21.6648V22.0859C46.1284 24.4253 46.8041 26.2657 48.1555 27.6069C49.5384 28.917 51.267 29.5721 53.3412 29.5721Z" fill="#C77234"/>
<path d="M30.8137 33.6425V10.5758H35.6694V33.6425H30.8137ZM33.2651 7.44101C32.3222 7.44101 31.5208 7.14468 30.8608 6.55203C30.2323 5.92818 29.918 5.13278 29.918 4.16582C29.918 3.19886 30.2323 2.41905 30.8608 1.8264C31.5208 1.20255 32.3222 0.890625 33.2651 0.890625C34.2394 0.890625 35.0408 1.20255 35.6694 1.8264C36.2979 2.41905 36.6122 3.19886 36.6122 4.16582C36.6122 5.13278 36.2979 5.92818 35.6694 6.55203C35.0408 7.14468 34.2394 7.44101 33.2651 7.44101Z" fill="#C77234"/>
<path d="M10.7485 34.2976C8.83138 34.2976 7.05567 33.8297 5.4214 32.8939C3.78712 31.9582 2.46713 30.6169 1.46142 28.8701C0.48714 27.0922 0 24.9555 0 22.4601V21.7583C0 19.2941 0.48714 17.173 1.46142 15.395C2.4357 13.6171 3.73998 12.2602 5.37425 11.3245C7.00853 10.3887 8.79995 9.9208 10.7485 9.9208C12.2571 9.9208 13.5142 10.108 14.5199 10.4823C15.5571 10.8566 16.4056 11.34 17.0656 11.9327C17.7256 12.4942 18.2285 13.0868 18.5742 13.7107H19.3285V0.890625H24.1841V33.6425H19.4227V30.3674H18.6685C18.0713 31.3655 17.1599 32.2701 15.9342 33.0811C14.7399 33.8921 13.0114 34.2976 10.7485 34.2976ZM12.1156 30.0866C14.2213 30.0866 15.9499 29.416 17.3013 28.0747C18.6842 26.7335 19.3756 24.8151 19.3756 22.3197V21.8986C19.3756 19.4345 18.6999 17.5317 17.3485 16.1905C15.9971 14.8492 14.2528 14.1785 12.1156 14.1785C10.0414 14.1785 8.31281 14.8492 6.92996 16.1905C5.57854 17.5317 4.90283 19.4345 4.90283 21.8986V22.3197C4.90283 24.8151 5.57854 26.7335 6.92996 28.0747C8.31281 29.416 10.0414 30.0866 12.1156 30.0866Z" fill="#C77234"/>
</svg>
