<svg width="500" height="366" viewBox="0 0 500 366" fill="none" xmlns="http://www.w3.org/2000/svg">
<rect x="400.288" y="77.4453" width="95.8774" height="10.3793" fill="#C77234"/>
<path d="M350.281 88.005V0H363.24V88.005H350.281Z" fill="#C77234"/>
<path d="M298.303 89.765C293.858 89.765 289.874 89.0107 286.351 87.5021C282.913 85.9934 280.145 83.7723 278.048 80.8388C276.035 77.9053 275.028 74.3432 275.028 70.1525C275.028 65.878 276.035 62.3578 278.048 59.5919C280.145 56.7422 282.954 54.6049 286.477 53.1801C290.084 51.7553 294.152 51.0428 298.681 51.0428H317.553V47.0197C317.553 43.4157 316.462 40.5241 314.282 38.345C312.101 36.1658 308.746 35.0762 304.217 35.0762C299.771 35.0762 296.374 36.1239 294.026 38.2192C291.677 40.3146 290.126 43.0386 289.371 46.3911L277.293 42.4938C278.299 39.1412 279.893 36.1239 282.074 33.4418C284.338 30.676 287.316 28.4549 291.006 26.7786C294.697 25.1023 299.142 24.2642 304.342 24.2642C312.394 24.2642 318.727 26.3176 323.34 30.4245C327.953 34.5314 330.26 40.3565 330.26 47.8998V73.4212C330.26 75.9357 331.434 77.1929 333.782 77.1929H339.066V88.0049H329.379C326.443 88.0049 324.053 87.2506 322.208 85.742C320.362 84.2333 319.44 82.1798 319.44 79.5816V79.2044H317.553C316.882 80.4617 315.875 81.9284 314.533 83.6047C313.191 85.281 311.22 86.7477 308.62 88.0049C306.02 89.1783 302.581 89.765 298.303 89.765ZM300.191 79.0787C305.391 79.0787 309.585 77.612 312.772 74.6785C315.959 71.6611 317.553 67.5542 317.553 62.3578V61.1005H299.436C295.997 61.1005 293.229 61.8549 291.132 63.3635C289.035 64.7884 287.987 66.9256 287.987 69.7753C287.987 72.625 289.077 74.888 291.258 76.5643C293.439 78.2406 296.416 79.0787 300.191 79.0787Z" fill="#C77234"/>
<path d="M246.212 88.006C242.438 88.006 239.419 86.8745 237.154 84.6115C234.973 82.3485 233.883 79.3312 233.883 75.5596V36.9631H216.772V26.0253H233.883V5.53271H246.841V26.0253H265.336V36.9631H246.841V73.2966C246.841 75.811 248.016 77.0682 250.364 77.0682H263.323V88.006H246.212Z" fill="#C77234"/>
<path d="M192.133 88.005V26.0243H205.091V88.005H192.133ZM198.675 17.601C196.159 17.601 194.02 16.8048 192.258 15.2123C190.581 13.536 189.742 11.3987 189.742 8.8005C189.742 6.20226 190.581 4.1069 192.258 2.51443C194.02 0.838145 196.159 0 198.675 0C201.275 0 203.414 0.838145 205.091 2.51443C206.769 4.1069 207.607 6.20226 207.607 8.8005C207.607 11.3987 206.769 13.536 205.091 15.2123C203.414 16.8048 201.275 17.601 198.675 17.601Z" fill="#C77234"/>
<path d="M110.021 57.3289V55.4431C110.021 48.9056 111.321 43.3319 113.921 38.7221C116.605 34.1123 120.127 30.5502 124.489 28.0358C128.85 25.5214 133.631 24.2642 138.831 24.2642C144.87 24.2642 149.483 25.3957 152.671 27.6586C155.942 29.9216 158.332 32.3522 159.842 34.9505H161.855V26.0243H174.436V100.703C174.436 104.474 173.304 107.492 171.039 109.755C168.858 112.018 165.839 113.149 161.981 113.149H120.211V101.834H157.955C160.387 101.834 161.603 100.577 161.603 98.0627V78.3244H159.59C158.668 79.833 157.368 81.3836 155.69 82.9761C154.013 84.5686 151.79 85.8677 149.022 86.8734C146.338 87.8792 142.941 88.3821 138.831 88.3821C133.631 88.3821 128.808 87.1668 124.363 84.7362C120.002 82.2218 116.521 78.6596 113.921 74.0499C111.321 69.3563 110.021 63.7826 110.021 57.3289ZM142.354 77.0672C147.974 77.0672 152.587 75.3071 156.193 71.7869C159.884 68.1829 161.729 63.2378 161.729 56.9517V55.8202C161.729 49.3665 159.926 44.4215 156.319 40.9851C152.713 37.4649 148.058 35.7048 142.354 35.7048C136.818 35.7048 132.205 37.4649 128.515 40.9851C124.908 44.4215 123.105 49.3665 123.105 55.8202V56.9517C123.105 63.2378 124.908 68.1829 128.515 71.7869C132.205 75.3071 136.818 77.0672 142.354 77.0672Z" fill="#C77234"/>
<path d="M82.2332 88.005V26.0243H95.1918V88.005H82.2332ZM88.7754 17.601C86.2592 17.601 84.1204 16.8048 82.359 15.2123C80.6815 13.536 79.8428 11.3987 79.8428 8.8005C79.8428 6.20226 80.6815 4.1069 82.359 2.51443C84.1204 0.838145 86.2592 0 88.7754 0C91.3755 0 93.5143 0.838145 95.1918 2.51443C96.8693 4.1069 97.708 6.20226 97.708 8.8005C97.708 11.3987 96.8693 13.536 95.1918 15.2123C93.5143 16.8048 91.3755 17.601 88.7754 17.601Z" fill="#C77234"/>
<path d="M28.6851 89.7651C23.5687 89.7651 18.8298 88.5079 14.4683 85.9935C10.1069 83.479 6.58414 79.875 3.90016 75.1814C1.30005 70.404 0 64.6627 0 57.9576V56.0718C0 49.4504 1.30005 43.7511 3.90016 38.9736C6.50027 34.1962 9.98106 30.5503 14.3425 28.0359C18.704 25.5215 23.4848 24.2642 28.6851 24.2642C32.711 24.2642 36.066 24.7671 38.75 25.7729C41.5179 26.7787 43.7825 28.0778 45.5438 29.6703C47.3052 31.1789 48.6472 32.7714 49.5698 34.4477H51.5828V0H64.5414V88.005H51.8344V79.2045H49.8214C48.2278 81.8866 45.7954 84.3172 42.5243 86.4964C39.3371 88.6755 34.724 89.7651 28.6851 89.7651ZM32.3336 78.4502C37.9532 78.4502 42.5663 76.6482 46.1729 73.0442C49.8634 69.4401 51.7086 64.2856 51.7086 57.5804V56.4489C51.7086 49.8276 49.9053 44.7149 46.2987 41.1109C42.6921 37.5069 38.0371 35.7049 32.3336 35.7049C26.7979 35.7049 22.1848 37.5069 18.4943 41.1109C14.8877 44.7149 13.0844 49.8276 13.0844 56.4489V57.5804C13.0844 64.2856 14.8877 69.4401 18.4943 73.0442C22.1848 76.6482 26.7979 78.4502 32.3336 78.4502Z" fill="#C77234"/>
<path d="M20.1867 182.147L41.9943 182.122C46.772 182.118 50.6339 180.793 53.5801 178.148C56.5255 175.503 57.9956 171.894 57.9905 167.323L57.9892 165.797C57.9832 161.227 56.505 157.621 53.5545 154.981C50.6024 152.345 46.737 151.029 41.9585 151.034L20.1521 151.058L20.1867 182.147ZM0.120167 239.472L0 132.792L43.9208 132.742C50.6314 132.735 56.5557 134.075 61.6939 136.762C66.8304 139.448 70.8504 143.228 73.754 148.102C76.6576 152.975 78.1128 158.765 78.1196 165.47L78.1222 167.604C78.129 174.21 76.6359 179.977 73.6428 184.905C70.648 189.839 66.5854 193.654 61.4548 196.35C56.3226 199.048 50.5035 200.401 43.9975 200.409L20.2071 200.434L20.2506 239.449L0.120167 239.472Z" fill="white"/>
<path d="M134.59 241.455C125.845 241.465 118.345 239.874 112.089 236.68C105.833 233.486 101.05 228.92 97.7389 222.981C94.427 217.041 92.7669 210.007 92.7583 201.878L92.6816 132.689L112.812 132.666L112.89 202.466C112.897 208.969 114.758 214.098 118.474 217.852C122.189 221.607 127.554 223.481 134.57 223.472C141.585 223.464 146.945 221.578 150.652 217.815C154.359 214.053 156.209 208.92 156.202 202.416L156.126 132.618L176.255 132.595L176.331 201.784C176.342 209.915 174.696 216.948 171.401 222.898C168.102 228.844 163.328 233.421 157.079 236.63C150.829 239.837 143.333 241.445 134.59 241.455Z" fill="white"/>
<path d="M225.216 220.933L244.127 220.911C248.499 220.906 252.031 219.836 254.723 217.7C257.415 215.562 258.758 212.512 258.754 208.551L258.752 207.027C258.747 203.064 257.423 200.017 254.778 197.887C252.131 195.757 248.572 194.695 244.099 194.699L225.188 194.72L225.216 220.933ZM225.168 176.432L243.774 176.411C247.942 176.407 251.371 175.337 254.063 173.2C256.755 171.062 258.099 168.114 258.096 164.355L258.093 162.832C258.089 158.972 256.764 156.001 254.118 153.921C251.471 151.843 248.014 150.805 243.745 150.807L225.137 150.829L225.168 176.432ZM191.076 239.259L191.056 221.582L205.086 221.564L205.005 150.243L190.977 150.258L190.956 132.58L245.858 132.518C252.365 132.511 258.034 133.597 262.867 135.776C267.697 137.956 271.462 141.05 274.162 145.058C276.858 149.07 278.215 153.87 278.22 159.456L278.222 160.98C278.227 165.857 277.317 169.846 275.49 172.947C273.663 176.048 271.506 178.438 269.018 180.117C266.527 181.797 264.164 182.993 261.93 183.706L261.933 186.45C264.169 187.057 266.61 188.197 269.256 189.869C271.9 191.544 274.166 193.955 276.052 197.102C277.935 200.251 278.88 204.364 278.886 209.442L278.888 210.966C278.895 216.861 277.528 221.917 274.787 226.133C272.047 230.355 268.264 233.586 263.437 235.825C258.61 238.065 252.994 239.189 246.589 239.198L191.076 239.259Z" fill="white"/>
<path d="M293.345 239.141L293.225 132.463L313.356 132.44L313.453 220.831L362.256 220.777L362.278 239.063L293.345 239.141Z" fill="white"/>
<path d="M377.238 239.047L377.118 132.368L397.25 132.347L397.37 239.024L377.238 239.047Z" fill="white"/>
<path d="M455.356 241.093C442.138 241.11 431.661 237.439 423.927 230.08C416.192 222.723 412.316 212.186 412.301 198.47L412.273 172.867C412.257 159.153 416.109 148.607 423.828 141.23C431.545 133.857 442.013 130.162 455.232 130.146C468.348 130.132 478.494 133.702 485.67 140.856C492.845 148.011 496.439 157.837 496.453 170.333L496.454 171.247L476.631 171.27L476.628 169.745C476.619 163.448 474.86 158.269 471.35 154.208C467.837 150.149 462.471 148.123 455.252 148.129C448.134 148.138 442.545 150.329 438.484 154.702C434.421 159.076 432.395 165.022 432.404 172.539L432.432 198.751C432.441 206.169 434.481 212.084 438.552 216.498C442.624 220.915 448.218 223.119 455.336 223.109C462.554 223.102 467.915 221.039 471.419 216.92C474.921 212.801 476.669 207.642 476.662 201.445L476.66 198.701L496.485 198.681L496.487 200.814C496.504 213.309 492.931 223.143 485.77 230.314C478.61 237.486 468.472 241.079 455.356 241.093Z" fill="white"/>
<path d="M14.1502 364.054L0 257.391L19.9783 257.368L30.4519 350.015L33.1966 350.012L46.5133 257.337L81.2861 257.299L94.8099 349.942L97.5559 349.94L107.821 257.268L127.801 257.247L113.89 363.942L79.1167 363.98L65.2861 269.205L62.5415 269.208L48.9205 364.016L14.1502 364.054Z" fill="white"/>
<path d="M180.212 348.017C187.735 348.009 193.578 345.818 197.743 341.444C201.906 337.073 203.984 331.225 203.975 323.911L203.945 297.089C203.937 289.774 201.846 283.934 197.673 279.57C193.499 275.207 187.651 273.029 180.129 273.036C172.706 273.045 166.887 275.236 162.673 279.609C158.458 283.983 156.355 289.827 156.364 297.143L156.393 323.966C156.402 331.281 158.518 337.121 162.743 341.484C166.965 345.847 172.788 348.025 180.212 348.017ZM180.232 366C166.812 366.017 156.132 362.346 148.193 354.987C140.255 347.63 136.278 337.094 136.262 323.379L136.233 297.775C136.217 284.06 140.171 273.514 148.094 266.138C156.015 258.764 166.686 255.07 180.108 255.056C193.528 255.04 204.208 258.71 212.147 266.066C220.085 273.424 224.062 283.961 224.076 297.677L224.107 323.28C224.121 336.995 220.168 347.54 212.248 354.916C204.324 362.291 193.652 365.985 180.232 366Z" fill="white"/>
<path d="M258.858 305.254L282.954 305.227C287.732 305.222 291.466 303.923 294.158 301.329C296.85 298.734 298.194 295.303 298.19 291.036L298.188 289.512C298.182 285.245 296.856 281.818 294.21 279.23C291.561 276.643 287.802 275.352 282.92 275.357L258.825 275.384L258.858 305.254ZM238.793 363.798L238.673 257.119L285.037 257.066C291.747 257.059 297.594 258.222 302.577 260.552C307.562 262.883 311.429 266.181 314.178 270.445C316.929 274.708 318.308 279.736 318.314 285.528L318.315 287.356C318.323 293.757 316.804 298.94 313.758 302.906C310.712 306.872 306.953 309.773 302.482 311.607L302.485 314.348C306.552 314.548 309.705 315.942 311.945 318.529C314.184 321.118 315.306 324.546 315.312 328.812L315.35 363.711L295.219 363.734L295.184 331.733C295.181 329.292 294.543 327.311 293.272 325.788C291.998 324.267 289.887 323.508 286.94 323.51L258.879 323.542L258.923 363.778L238.793 363.798Z" fill="white"/>
<path d="M332.124 363.692L332.005 257.014L352.135 256.992L352.184 299.359L354.93 299.355L389.501 256.949L415.274 256.919L370.801 309.546L416.918 363.598L390.381 363.627L354.952 320.387L352.207 320.391L352.255 363.669L332.124 363.692Z" fill="white"/>
<path d="M459.621 365.682C451.386 365.691 444.115 364.227 437.81 361.288C431.5 358.349 426.564 354.138 423.001 348.655C419.435 343.173 417.649 336.571 417.641 328.849L417.636 324.583L437.462 324.56L437.466 328.826C437.474 335.227 439.463 340.026 443.431 343.222C447.399 346.417 452.789 348.012 459.601 348.005C466.514 347.995 471.673 346.618 475.078 343.872C478.479 341.124 480.178 337.617 480.173 333.35C480.171 330.405 479.33 328.018 477.65 326.19C475.971 324.363 473.529 322.868 470.324 321.703C467.12 320.539 463.23 319.451 458.653 318.439L455.146 317.682C447.823 316.066 441.539 314.016 436.304 311.531C431.063 309.048 427.043 305.776 424.244 301.715C421.442 297.655 420.039 292.373 420.033 285.87C420.024 279.369 421.568 273.805 424.665 269.176C427.761 264.551 432.129 260.99 437.769 258.494C443.409 255.999 450.042 254.747 457.668 254.738C465.294 254.729 472.081 256.017 478.031 258.601C483.982 261.186 488.663 265.041 492.075 270.167C495.487 275.295 497.197 281.719 497.205 289.44L497.21 294.012L477.385 294.035L477.38 289.462C477.375 285.4 476.583 282.124 475.005 279.636C473.424 277.149 471.16 275.323 468.212 274.158C465.26 272.992 461.752 272.411 457.687 272.416C451.587 272.422 447.089 273.571 444.195 275.861C441.298 278.151 439.852 281.276 439.858 285.236C439.86 287.88 440.549 290.115 441.925 291.94C443.299 293.768 445.36 295.29 448.106 296.506C450.852 297.722 454.362 298.785 458.634 299.694L462.142 300.452C469.768 302.07 476.404 304.146 482.051 306.679C487.696 309.213 492.096 312.56 495.253 316.721C498.409 320.886 499.991 326.218 500 332.718C500.005 339.221 498.36 344.938 495.062 349.869C491.763 354.8 487.09 358.666 481.044 361.467C474.997 364.268 467.856 365.674 459.621 365.682Z" fill="white"/>
</svg>
